<svg xmlns="http://www.w3.org/2000/svg" xml:space="preserve" viewBox="0 0 256 256">
  <path d="M240 20.6c-4.2-1.7-7.8-1-10.8 2.1l-20 19.8c-11-10.4-23.5-18.4-37.6-24-14-5.7-28.5-8.5-43.6-8.5-16 0-31.2 3.1-45.8 9.4C67.7 25.6 55.1 34 44.6 44.5 34 55.1 25.6 67.6 19.4 82.2 13.1 96.8 10 112 10 128c0 16 3.1 31.2 9.4 45.8 6.3 14.5 14.6 27.1 25.2 37.6s23.1 19 37.6 25.2c14.6 6.3 29.8 9.4 45.8 9.4 17.6 0 34.4-3.7 50.2-11.2 15.9-7.4 29.4-17.9 40.6-31.4.8-1 1.2-2.2 1.2-3.5 0-1.3-.5-2.3-1.5-3.2l-21.1-21.2c-1.1-.9-2.4-1.4-3.9-1.4-1.6.2-2.8.8-3.5 1.9-7.5 9.7-16.6 17.3-27.5 22.6-10.9 5.3-22.4 8-34.6 8-10.6 0-20.8-2.1-30.5-6.2s-18.1-9.8-25.1-16.8c-7.1-7.1-12.7-15.4-16.8-25.1-4.1-9.7-6.2-19.8-6.2-30.5 0-10.6 2.1-20.8 6.2-30.5s9.8-18.1 16.8-25.1c7.1-7.1 15.4-12.7 25.1-16.8 9.7-4.1 19.8-6.2 30.5-6.2 20.6 0 38.5 7 53.6 21l-21.2 21.2c-3.2 3.1-3.9 6.6-2.1 10.6 1.7 4.1 4.8 6.1 9.1 6.1h68.8c2.7 0 5-1 6.9-2.9 2-2 2.9-4.2 2.9-6.9V29.7c.1-4.3-1.9-7.4-5.9-9.1z"/>
</svg>
